<svg xmlns="http://www.w3.org/2000/svg" version="1.1" xmlns:xlink="http://www.w3.org/1999/xlink" xmlns:svgjs="http://svgjs.dev/svgjs" width="737" height="200"><svg xmlns="http://www.w3.org/2000/svg" xmlns:xlink="http://www.w3.org/1999/xlink" width="737" zoomAndPan="magnify" viewBox="0 0 552.75 149.999998" height="200" preserveAspectRatio="xMidYMid meet" version="1.0"><defs><g></g><clipPath id="SvgjsClipPath1003"><path d="M 0 0.0351562 L 552.5 0.0351562 L 552.5 149.964844 L 0 149.964844 Z M 0 0.0351562 " clip-rule="nonzero"></path></clipPath><clipPath id="SvgjsClipPath1002"><path d="M 0 35.144531 L 78.714844 35.144531 L 78.714844 113.859375 L 0 113.859375 Z M 0 35.144531 " clip-rule="nonzero"></path></clipPath></defs><g clip-path="url(#f3dbaf24d4)"><path fill="#ffffff" d="M 0 0.0351562 L 552.5 0.0351562 L 552.5 149.964844 L 0 149.964844 Z M 0 0.0351562 " fill-opacity="1" fill-rule="nonzero"></path></g><path fill="#fbb03b" d="M 19.683594 108.582031 C 21.941406 109.890625 24.335938 110.976562 26.847656 111.8125 L 26.847656 65.203125 L 19.683594 76.425781 Z M 19.683594 108.582031 " fill-opacity="1" fill-rule="nonzero"></path><path fill="#fbb03b" d="M 51.863281 65.199219 L 51.863281 111.816406 C 54.378906 110.976562 56.777344 109.890625 59.035156 108.582031 L 59.035156 76.425781 Z M 51.863281 65.199219 " fill-opacity="1" fill-rule="nonzero"></path><g clip-path="url(#4eaaa24130)"><path fill="#333333" d="M 41.175781 35.167969 C 59.828125 36.121094 74.65625 51.535156 74.65625 70.417969 C 74.65625 82.625 68.457031 93.390625 59.035156 99.734375 C 56.8125 101.226562 54.40625 102.476562 51.863281 103.441406 C 50.707031 103.882812 49.519531 104.261719 48.304688 104.574219 L 48.304688 59.625 L 41.140625 48.414062 L 41.140625 105.675781 C 40.554688 105.703125 39.964844 105.71875 39.363281 105.71875 C 38.761719 105.71875 38.171875 105.703125 37.578125 105.675781 L 37.578125 48.414062 L 30.414062 59.625 L 30.414062 104.566406 C 29.199219 104.253906 28.011719 103.875 26.847656 103.433594 C 24.304688 102.46875 21.90625 101.226562 19.683594 99.726562 C 10.265625 93.390625 4.0625 82.625 4.0625 70.417969 C 4.0625 51.535156 18.898438 36.121094 37.550781 35.167969 C 16.648438 36.113281 0 53.355469 0 74.484375 C 0 89.054688 7.914062 101.777344 19.683594 108.582031 C 21.941406 109.890625 24.335938 110.976562 26.847656 111.8125 C 28.011719 112.203125 29.207031 112.546875 30.414062 112.824219 C 32.726562 113.359375 35.128906 113.695312 37.578125 113.804688 C 38.171875 113.832031 38.761719 113.847656 39.363281 113.847656 C 39.957031 113.847656 40.550781 113.832031 41.140625 113.804688 C 43.59375 113.695312 45.984375 113.367188 48.304688 112.824219 C 49.511719 112.546875 50.699219 112.210938 51.863281 111.816406 C 54.378906 110.976562 56.777344 109.890625 59.035156 108.582031 C 70.800781 101.78125 78.71875 89.0625 78.71875 74.484375 C 78.71875 53.355469 62.070312 36.113281 41.175781 35.167969 Z M 41.175781 35.167969 " fill-opacity="1" fill-rule="nonzero"></path></g><g fill="#000000" fill-opacity="1"><g transform="translate(91.365142, 97.50173)"><g><path d="M 2.1875 -23.28125 C 2.1875 -27.863281 3.175781 -31.953125 5.15625 -35.546875 C 7.144531 -39.140625 9.910156 -41.9375 13.453125 -43.9375 C 17.003906 -45.945312 21.03125 -46.953125 25.53125 -46.953125 C 31.039062 -46.953125 35.753906 -45.492188 39.671875 -42.578125 C 43.597656 -39.671875 46.222656 -35.707031 47.546875 -30.6875 L 35.109375 -30.6875 C 34.179688 -32.625 32.867188 -34.097656 31.171875 -35.109375 C 29.472656 -36.128906 27.546875 -36.640625 25.390625 -36.640625 C 21.910156 -36.640625 19.085938 -35.425781 16.921875 -33 C 14.765625 -30.570312 13.6875 -27.332031 13.6875 -23.28125 C 13.6875 -19.21875 14.765625 -15.972656 16.921875 -13.546875 C 19.085938 -11.128906 21.910156 -9.921875 25.390625 -9.921875 C 27.546875 -9.921875 29.472656 -10.425781 31.171875 -11.4375 C 32.867188 -12.445312 34.179688 -13.925781 35.109375 -15.875 L 47.546875 -15.875 C 46.222656 -10.84375 43.597656 -6.882812 39.671875 -4 C 35.753906 -1.113281 31.039062 0.328125 25.53125 0.328125 C 21.03125 0.328125 17.003906 -0.671875 13.453125 -2.671875 C 9.910156 -4.679688 7.144531 -7.472656 5.15625 -11.046875 C 3.175781 -14.617188 2.1875 -18.695312 2.1875 -23.28125 Z M 2.1875 -23.28125 "></path></g></g></g><g fill="#000000" fill-opacity="1"><g transform="translate(141.741483, 97.50173)"><g><path d="M 20.890625 0.53125 C 17.273438 0.53125 14.023438 -0.238281 11.140625 -1.78125 C 8.253906 -3.320312 5.984375 -5.523438 4.328125 -8.390625 C 2.671875 -11.265625 1.84375 -14.617188 1.84375 -18.453125 C 1.84375 -22.242188 2.679688 -25.582031 4.359375 -28.46875 C 6.035156 -31.351562 8.328125 -33.566406 11.234375 -35.109375 C 14.148438 -36.648438 17.414062 -37.421875 21.03125 -37.421875 C 24.644531 -37.421875 27.90625 -36.648438 30.8125 -35.109375 C 33.71875 -33.566406 36.007812 -31.351562 37.6875 -28.46875 C 39.363281 -25.582031 40.203125 -22.242188 40.203125 -18.453125 C 40.203125 -14.660156 39.351562 -11.316406 37.65625 -8.421875 C 35.957031 -5.535156 33.640625 -3.320312 30.703125 -1.78125 C 27.773438 -0.238281 24.503906 0.53125 20.890625 0.53125 Z M 20.890625 -9.25 C 23.054688 -9.25 24.898438 -10.039062 26.421875 -11.625 C 27.941406 -13.21875 28.703125 -15.492188 28.703125 -18.453125 C 28.703125 -21.398438 27.960938 -23.664062 26.484375 -25.25 C 25.003906 -26.84375 23.1875 -27.640625 21.03125 -27.640625 C 18.820312 -27.640625 16.988281 -26.859375 15.53125 -25.296875 C 14.082031 -23.734375 13.359375 -21.453125 13.359375 -18.453125 C 13.359375 -15.492188 14.070312 -13.21875 15.5 -11.625 C 16.9375 -10.039062 18.734375 -9.25 20.890625 -9.25 Z M 20.890625 -9.25 "></path></g></g></g><g fill="#000000" fill-opacity="1"><g transform="translate(183.853996, 97.50173)"><g><path d="M 51.1875 -37.296875 C 55.769531 -37.296875 59.414062 -35.90625 62.125 -33.125 C 64.832031 -30.351562 66.1875 -26.5 66.1875 -21.5625 L 66.1875 0 L 54.953125 0 L 54.953125 -20.03125 C 54.953125 -22.414062 54.320312 -24.257812 53.0625 -25.5625 C 51.8125 -26.863281 50.082031 -27.515625 47.875 -27.515625 C 45.664062 -27.515625 43.929688 -26.863281 42.671875 -25.5625 C 41.421875 -24.257812 40.796875 -22.414062 40.796875 -20.03125 L 40.796875 0 L 29.5625 0 L 29.5625 -20.03125 C 29.5625 -22.414062 28.929688 -24.257812 27.671875 -25.5625 C 26.410156 -26.863281 24.679688 -27.515625 22.484375 -27.515625 C 20.273438 -27.515625 18.539062 -26.863281 17.28125 -25.5625 C 16.03125 -24.257812 15.40625 -22.414062 15.40625 -20.03125 L 15.40625 0 L 4.09375 0 L 4.09375 -36.890625 L 15.40625 -36.890625 L 15.40625 -32.265625 C 16.550781 -33.804688 18.050781 -35.03125 19.90625 -35.9375 C 21.757812 -36.84375 23.851562 -37.296875 26.1875 -37.296875 C 28.957031 -37.296875 31.429688 -36.695312 33.609375 -35.5 C 35.796875 -34.3125 37.507812 -32.617188 38.75 -30.421875 C 40.03125 -32.441406 41.769531 -34.09375 43.96875 -35.375 C 46.175781 -36.65625 48.582031 -37.296875 51.1875 -37.296875 Z M 51.1875 -37.296875 "></path></g></g></g><g fill="#000000" fill-opacity="1"><g transform="translate(253.865216, 97.50173)"><g><path d="M 51.1875 -37.296875 C 55.769531 -37.296875 59.414062 -35.90625 62.125 -33.125 C 64.832031 -30.351562 66.1875 -26.5 66.1875 -21.5625 L 66.1875 0 L 54.953125 0 L 54.953125 -20.03125 C 54.953125 -22.414062 54.320312 -24.257812 53.0625 -25.5625 C 51.8125 -26.863281 50.082031 -27.515625 47.875 -27.515625 C 45.664062 -27.515625 43.929688 -26.863281 42.671875 -25.5625 C 41.421875 -24.257812 40.796875 -22.414062 40.796875 -20.03125 L 40.796875 0 L 29.5625 0 L 29.5625 -20.03125 C 29.5625 -22.414062 28.929688 -24.257812 27.671875 -25.5625 C 26.410156 -26.863281 24.679688 -27.515625 22.484375 -27.515625 C 20.273438 -27.515625 18.539062 -26.863281 17.28125 -25.5625 C 16.03125 -24.257812 15.40625 -22.414062 15.40625 -20.03125 L 15.40625 0 L 4.09375 0 L 4.09375 -36.890625 L 15.40625 -36.890625 L 15.40625 -32.265625 C 16.550781 -33.804688 18.050781 -35.03125 19.90625 -35.9375 C 21.757812 -36.84375 23.851562 -37.296875 26.1875 -37.296875 C 28.957031 -37.296875 31.429688 -36.695312 33.609375 -35.5 C 35.796875 -34.3125 37.507812 -32.617188 38.75 -30.421875 C 40.03125 -32.441406 41.769531 -34.09375 43.96875 -35.375 C 46.175781 -36.65625 48.582031 -37.296875 51.1875 -37.296875 Z M 51.1875 -37.296875 "></path></g></g></g><g fill="#000000" fill-opacity="1"><g transform="translate(323.876426, 97.50173)"><g><path d="M 38.875 -19.046875 C 38.875 -17.984375 38.8125 -16.878906 38.6875 -15.734375 L 13.09375 -15.734375 C 13.269531 -13.441406 14.007812 -11.6875 15.3125 -10.46875 C 16.613281 -9.257812 18.210938 -8.65625 20.109375 -8.65625 C 22.921875 -8.65625 24.878906 -9.847656 25.984375 -12.234375 L 38.015625 -12.234375 C 37.398438 -9.804688 36.285156 -7.625 34.671875 -5.6875 C 33.066406 -3.75 31.050781 -2.226562 28.625 -1.125 C 26.207031 -0.0195312 23.5 0.53125 20.5 0.53125 C 16.882812 0.53125 13.664062 -0.238281 10.84375 -1.78125 C 8.019531 -3.320312 5.8125 -5.523438 4.21875 -8.390625 C 2.632812 -11.265625 1.84375 -14.617188 1.84375 -18.453125 C 1.84375 -22.285156 2.625 -25.632812 4.1875 -28.5 C 5.757812 -31.363281 7.957031 -33.566406 10.78125 -35.109375 C 13.601562 -36.648438 16.84375 -37.421875 20.5 -37.421875 C 24.070312 -37.421875 27.242188 -36.671875 30.015625 -35.171875 C 32.796875 -33.679688 34.96875 -31.546875 36.53125 -28.765625 C 38.09375 -25.984375 38.875 -22.742188 38.875 -19.046875 Z M 27.3125 -22.015625 C 27.3125 -23.953125 26.648438 -25.492188 25.328125 -26.640625 C 24.003906 -27.796875 22.347656 -28.375 20.359375 -28.375 C 18.460938 -28.375 16.863281 -27.820312 15.5625 -26.71875 C 14.269531 -25.613281 13.46875 -24.046875 13.15625 -22.015625 Z M 27.3125 -22.015625 "></path></g></g></g><g fill="#000000" fill-opacity="1"><g transform="translate(364.60062, 97.50173)"><g><path d="M 15.40625 -30.75 C 16.726562 -32.78125 18.378906 -34.378906 20.359375 -35.546875 C 22.347656 -36.710938 24.554688 -37.296875 26.984375 -37.296875 L 26.984375 -25.328125 L 23.875 -25.328125 C 21.050781 -25.328125 18.929688 -24.71875 17.515625 -23.5 C 16.109375 -22.289062 15.40625 -20.164062 15.40625 -17.125 L 15.40625 0 L 4.09375 0 L 4.09375 -36.890625 L 15.40625 -36.890625 Z M 15.40625 -30.75 "></path></g></g></g><g fill="#000000" fill-opacity="1"><g transform="translate(392.895995, 97.50173)"><g><path d="M 1.84375 -18.453125 C 1.84375 -22.285156 2.625 -25.632812 4.1875 -28.5 C 5.757812 -31.363281 7.941406 -33.566406 10.734375 -35.109375 C 13.535156 -36.648438 16.742188 -37.421875 20.359375 -37.421875 C 24.992188 -37.421875 28.863281 -36.207031 31.96875 -33.78125 C 35.082031 -31.363281 37.125 -27.953125 38.09375 -23.546875 L 26.046875 -23.546875 C 25.035156 -26.359375 23.078125 -27.765625 20.171875 -27.765625 C 18.097656 -27.765625 16.441406 -26.960938 15.203125 -25.359375 C 13.972656 -23.753906 13.359375 -21.453125 13.359375 -18.453125 C 13.359375 -15.453125 13.972656 -13.144531 15.203125 -11.53125 C 16.441406 -9.925781 18.097656 -9.125 20.171875 -9.125 C 23.078125 -9.125 25.035156 -10.535156 26.046875 -13.359375 L 38.09375 -13.359375 C 37.125 -9.035156 35.070312 -5.640625 31.9375 -3.171875 C 28.8125 -0.703125 24.953125 0.53125 20.359375 0.53125 C 16.742188 0.53125 13.535156 -0.238281 10.734375 -1.78125 C 7.941406 -3.320312 5.757812 -5.523438 4.1875 -8.390625 C 2.625 -11.265625 1.84375 -14.617188 1.84375 -18.453125 Z M 1.84375 -18.453125 "></path></g></g></g><g fill="#000000" fill-opacity="1"><g transform="translate(432.892971, 97.50173)"><g><path d="M 9.78125 -40.734375 C 7.800781 -40.734375 6.179688 -41.316406 4.921875 -42.484375 C 3.671875 -43.648438 3.046875 -45.09375 3.046875 -46.8125 C 3.046875 -48.582031 3.671875 -50.050781 4.921875 -51.21875 C 6.179688 -52.382812 7.800781 -52.96875 9.78125 -52.96875 C 11.726562 -52.96875 13.328125 -52.382812 14.578125 -51.21875 C 15.835938 -50.050781 16.46875 -48.582031 16.46875 -46.8125 C 16.46875 -45.09375 15.835938 -43.648438 14.578125 -42.484375 C 13.328125 -41.316406 11.726562 -40.734375 9.78125 -40.734375 Z M 15.40625 -36.890625 L 15.40625 0 L 4.09375 0 L 4.09375 -36.890625 Z M 15.40625 -36.890625 "></path></g></g></g><g fill="#000000" fill-opacity="1"><g transform="translate(452.39564, 97.50173)"><g><path d="M 1.84375 -18.515625 C 1.84375 -22.304688 2.5625 -25.632812 4 -28.5 C 5.4375 -31.363281 7.390625 -33.566406 9.859375 -35.109375 C 12.328125 -36.648438 15.082031 -37.421875 18.125 -37.421875 C 20.71875 -37.421875 22.992188 -36.890625 24.953125 -35.828125 C 26.921875 -34.773438 28.429688 -33.390625 29.484375 -31.671875 L 29.484375 -36.890625 L 40.796875 -36.890625 L 40.796875 0 L 29.484375 0 L 29.484375 -5.21875 C 28.390625 -3.5 26.859375 -2.109375 24.890625 -1.046875 C 22.929688 0.00390625 20.648438 0.53125 18.046875 0.53125 C 15.054688 0.53125 12.328125 -0.25 9.859375 -1.8125 C 7.390625 -3.382812 5.4375 -5.613281 4 -8.5 C 2.5625 -11.382812 1.84375 -14.722656 1.84375 -18.515625 Z M 29.484375 -18.453125 C 29.484375 -21.273438 28.703125 -23.5 27.140625 -25.125 C 25.578125 -26.757812 23.671875 -27.578125 21.421875 -27.578125 C 19.171875 -27.578125 17.265625 -26.769531 15.703125 -25.15625 C 14.140625 -23.550781 13.359375 -21.335938 13.359375 -18.515625 C 13.359375 -15.691406 14.140625 -13.453125 15.703125 -11.796875 C 17.265625 -10.148438 19.171875 -9.328125 21.421875 -9.328125 C 23.671875 -9.328125 25.578125 -10.140625 27.140625 -11.765625 C 28.703125 -13.398438 29.484375 -15.628906 29.484375 -18.453125 Z M 29.484375 -18.453125 "></path></g></g></g><g fill="#000000" fill-opacity="1"><g transform="translate(497.284789, 97.50173)"><g><path d="M 15.40625 -48.9375 L 15.40625 0 L 4.09375 0 L 4.09375 -48.9375 Z M 15.40625 -48.9375 "></path></g></g></g></svg><style>@media (prefers-color-scheme: light) { :root { filter: none; } }
@media (prefers-color-scheme: dark) { :root { filter: none; } }
</style></svg>